<?xml version="1.0" encoding="utf-8"?>
<!-- Generator: Adobe Illustrator 27.5.0, SVG Export Plug-In . SVG Version: 6.00 Build 0)  -->
<svg version="1.1" xmlns="http://www.w3.org/2000/svg" xmlns:xlink="http://www.w3.org/1999/xlink" x="0px" y="0px"
	 viewBox="0 0 500 500" style="enable-background:new 0 0 500 500;" xml:space="preserve">
<g id="Background_Simple">
	<g>
		<path style="fill:#C6FF00;" d="M420.7,119.106c0,0-34.062-48.042-95.651-47.904c-61.588,0.138-99.121,42.808-141.269,67.629
			c-22.072,12.998-49.247,12.537-73.421,20.56c-77.294,25.652-94.715,126.462-54.614,177.375
			c34.715,44.076,88.218,62.446,165.571,58.344c77.353-4.103,131.958-4.315,194.567-59.909
			C478.492,279.606,461.419,182.794,420.7,119.106z"/>
		<path style="opacity:0.7;fill:#FFFFFF;" d="M420.7,119.106c0,0-34.062-48.042-95.651-47.904
			c-61.588,0.138-99.121,42.808-141.269,67.629c-22.072,12.998-49.247,12.537-73.421,20.56
			c-77.294,25.652-94.715,126.462-54.614,177.375c34.715,44.076,88.218,62.446,165.571,58.344
			c77.353-4.103,131.958-4.315,194.567-59.909C478.492,279.606,461.419,182.794,420.7,119.106z"/>
	</g>
</g>
<g id="Clouds">
	<path style="fill:#FFFFFF;" d="M400.535,114.105c-1.294,0-2.482,0.438-3.435,1.169c-1.211-3.486-4.515-5.992-8.413-5.992
		c-1.59,0-3.081,0.421-4.373,1.152c-0.796-8.875-8.25-15.832-17.332-15.832c-8.355,0-15.332,5.888-17.016,13.741
		c-2.044-2.011-4.846-3.255-7.94-3.255c-5.365,0-9.847,3.734-11.017,8.742c-1.231-1.654-3.197-2.726-5.417-2.726
		c-1.207,0-2.337,0.32-3.318,0.874c-0.604-6.733-6.259-12.011-13.149-12.011c-6.339,0-11.632,4.467-12.909,10.425
		c-1.551-1.526-3.676-2.47-6.023-2.47c-4.745,0-8.591,3.846-8.591,8.591c0,0.108,0.012,0.212,0.016,0.318h49.106h7.526h67.122
		C404.376,115.199,402.586,114.105,400.535,114.105z"/>
	<path style="fill:#FFFFFF;" d="M284.763,309.962c-1.294,0-2.482,0.438-3.436,1.169c-1.211-3.486-4.515-5.992-8.413-5.992
		c-1.591,0-3.081,0.421-4.374,1.152c-0.796-8.875-8.25-15.832-17.332-15.832c-8.355,0-15.332,5.888-17.016,13.741
		c-2.044-2.011-4.846-3.255-7.94-3.255c-5.365,0-9.847,3.734-11.017,8.742c-1.231-1.654-3.197-2.726-5.417-2.726
		c-1.207,0-2.337,0.32-3.318,0.874c-0.604-6.733-6.259-12.011-13.149-12.011c-6.339,0-11.632,4.467-12.909,10.425
		c-1.551-1.526-3.676-2.47-6.023-2.47c-4.745,0-8.591,3.846-8.591,8.591c0,0.108,0.012,0.212,0.016,0.318h49.106h7.526h67.122
		C288.604,311.056,286.814,309.962,284.763,309.962z"/>
	<path style="fill:#FFFFFF;" d="M290.708,240.32c-2.548,0-4.888,0.863-6.766,2.302c-2.384-6.865-8.893-11.801-16.569-11.801
		c-3.132,0-6.067,0.83-8.613,2.268c-1.568-17.478-16.247-31.179-34.133-31.179c-16.454,0-30.196,11.596-33.511,27.061
		c-4.025-3.961-9.543-6.411-15.636-6.411c-10.565,0-19.393,7.354-21.697,17.217c-2.424-3.257-6.297-5.368-10.669-5.368
		c-2.376,0-4.603,0.63-6.534,1.721c-1.19-13.26-12.326-23.654-25.896-23.654c-12.483,0-22.908,8.798-25.424,20.531
		c-3.054-3.005-7.24-4.864-11.863-4.864c-9.345,0-16.92,7.575-16.92,16.92c0,0.212,0.024,0.417,0.031,0.627h96.71h14.822h132.19
		C298.272,242.474,294.746,240.32,290.708,240.32z"/>
</g>
<g id="Airplane">
	<g>
		<path style="fill:#FFFFFF;" d="M231.293,181.372l-59.297-11.463l-43.308-8.481c-0.518-0.101-1.039-0.173-1.565-0.212
			c-2.31-0.174-8.688-0.479-12.188,1.115c-4.326,1.97-6.425,5.044-5.192,6.995c1.233,1.952,9.223,6.297,16.439,8.727
			c7.216,2.43,42.958,10.155,48.021,10.561c5.063,0.405,11.294,0.673,11.294,0.673s21.383,1.943,29.548,1.208
			c8.165-0.736,20.039-4.417,20.628-5.991C236.263,182.928,231.293,181.372,231.293,181.372z"/>
		<path style="fill:#FFFFFF;" d="M208.677,177.477c0,0,6.443,0.516,9.352-1.104c2.909-1.62,14.186-18.087,14.895-18.262
			c0.709-0.175,5.771,0.23,5.771,0.23l-7.743,24.392l-23.214-5.101L208.677,177.477z"/>
		<g>
			<path style="fill:#263238;" d="M224.684,188.717c0,0,1.666-0.561,2.623-0.948c0.957-0.387,3.102-1.141,4.308-1.739
				c1.206-0.598,1.758-1.712,1.758-1.712l29.437-3.202l-2.992-0.24l-31.665,2.097C228.126,186.214,224.684,188.717,224.684,188.717z
				"/>
			<path style="fill:#263238;" d="M276.158,170.605l-18.775,1.569l0.624-0.229l-57.327,3.509l-36.021,2.205
				c0,0-4.391-0.12-2.89,1.39l5.891,1.63c0,0-11.101-0.194-27.43-4.512c-16.329-4.318-21.815-5.22-26.445-8.139
				c-1.307-0.824-2.165-1.944-2.725-3.127c0,0,0,0,0,0c-1.557,1.551-2.086,3.206-1.316,4.424c1.148,1.817,8.157,5.71,14.943,8.2
				l-0.308-0.08l-10.088-1.271c0,0-2.504-3.443-2.559-2.752c-0.055,0.69-1.482,4.05-0.562,4.124s11.948,1.188,11.948,1.188
				l-0.259,3.233c-0.649,0.007-1.198,0.502-1.251,1.162c-0.056,0.699,0.465,1.311,1.164,1.367c0.607,0.049,1.148-0.339,1.316-0.9
				c0.149,0.061,0.31,0.103,0.484,0.117c0.051,0.004,0.099,0,0.149-0.001c0.258,2.224,1.533,3.927,4.122,4.511
				c3.185,0.718,12.353,1.915,15.243,0.525c2.095-1.007,1.212-4.32,0.566-6.068c3.876,0.876,7.927,1.762,11.756,2.573l-0.209,2.611
				l2.476,0.893l1.813,3.387l-1.527,0.537c-0.165-0.798-0.76-1.415-1.524-1.477c-0.953-0.076-1.796,0.738-1.882,1.818
				c-0.087,1.08,0.616,2.018,1.569,2.094c0.617,0.049,1.183-0.277,1.533-0.804l2.338,0.187l0.019,0.112
				c-0.704,0.206-1.257,0.89-1.326,1.752c-0.086,1.08,0.616,2.018,1.569,2.094c0.919,0.074,1.728-0.683,1.863-1.705l0.17,0.035
				c0.264,0.565,0.768,0.968,1.377,1.016c0.953,0.076,1.796-0.738,1.883-1.818c0.086-1.08-0.616-2.018-1.569-2.094
				c-0.773-0.062-1.466,0.466-1.749,1.242l-0.874-0.294l-0.202-3.258l-1.39-2.89l0.387-2.451c6.291,1.29,11.368,2.234,13.052,2.369
				c5.063,0.405,11.294,0.673,11.294,0.673s2.23,0.203,5.522,0.452l-0.165,2.061l-1.706,0.006c-0.237-0.651-0.774-1.13-1.442-1.184
				c-0.953-0.076-1.796,0.738-1.883,1.818c-0.086,1.08,0.616,2.018,1.569,2.094c0.667,0.053,1.274-0.335,1.612-0.94l1.684,0.277
				l0.026,0.06c-0.527,0.303-0.913,0.892-0.97,1.601c-0.086,1.08,0.616,2.018,1.569,2.094c0.699,0.056,1.336-0.369,1.661-1.025
				l1.344,0.108c0.261,0.576,0.769,0.988,1.385,1.037c0.953,0.076,1.796-0.738,1.883-1.818c0.087-1.08-0.616-2.018-1.569-2.094
				c-0.953-0.076-1.796,0.738-1.882,1.818l-0.939,0.156l0.138-5.9c6.956,0.493,16.761,1.032,21.71,0.586
				c1.432-0.129,2.978-0.35,4.558-0.633c0.001,0,0.002,0,0.003,0c-4.387-0.066-10.574-0.27-14.631-0.868
				c-6.867-1.013-7.023-1.952-7.023-1.952s1.151,0.092,1.224-0.828c0.074-0.921,0.184-2.301,0.184-2.301s3.13,1.409,4.032,1.712
				c0.902,0.304-1.252-1.721-1.252-1.721l9.371-1.334l3.074,2.099l1.169-0.138l-1.482-1.74l8.952-1.325
				c0.103,0.007,0.205,0.014,0.304,0.021l3.244,1.378l1.381,0.111l-1.139-1.489l-0.327-1.003l8.26-1.365
				c0,0,3.074,2.099,4.722,1.768c1.648-0.331-0.101-1.629-0.101-1.629l3.268-0.317l2.559-0.143l0.184-2.301l3.551-1.3l30.673-3.835
				l3.535-3.654L276.158,170.605z M128.834,179.654c0,0-3.267-0.454-3.999,1.771c-0.027-0.003-0.052-0.011-0.079-0.013
				c-0.162-0.013-0.318,0.002-0.466,0.033l0.202-2.528l9.647,1.295c0.291,0.072,0.586,0.144,0.887,0.217L128.834,179.654z"/>
		</g>
		<path style="fill:#FFFFFF;" d="M192.154,178.47l-7.649,0.082c0,0,0.847,0.994,1.086,3.792c0.239,2.798,1.795,3.618,4.077,4.032
			c2.283,0.414,5.615-0.708,5.606-3.488C195.265,180.109,194.474,178.424,192.154,178.47z"/>
		<g>
			<polygon style="fill:#263238;" points="114.126,163.192 113.238,165.037 114.962,165.204 115.953,163.338 			"/>
			<polygon style="fill:#263238;" points="121.817,165.868 123.211,166.003 122.456,163.858 121.877,163.812 			"/>
			<polygon style="fill:#263238;" points="118.764,163.563 118.334,165.531 121.25,165.813 121.31,163.767 			"/>
			<polygon style="fill:#263238;" points="118.192,163.517 116.57,163.387 115.574,165.264 117.764,165.476 			"/>
			<path style="fill:#263238;" d="M113.519,163.143l-0.126-0.01c-0.895,0.53-1.652,1.107-2.261,1.701l1.502,0.145L113.519,163.143z"
				/>
		</g>
	</g>
</g>
<g id="Window">
	<path style="fill:#263238;" d="M456.935,228.077c-0.126-2.479-0.303-4.961-0.53-7.445H436.77v-16.544h17.413
		c-0.686-3.874-1.486-7.737-2.388-11.581H336.679v10.754h14.063l8.272,24.816h16.544v128.216h13.159
		c8.948-5.964,17.971-12.927,27.167-21.092c9.181-8.152,16.635-17.195,22.566-26.885H416.09v-24.816h30.606v8.692
		c1.761-4.195,3.287-8.475,4.583-12.828h-0.447v-24.816h5.397c0.15-1.375,0.281-2.754,0.394-4.136h-5.791v-22.334H456.935z
		 M388.792,204.088h22.334v16.544h-22.334V204.088z M364.803,220.632l-6.156-16.544h28.491v16.544H364.803z M411.954,308.315
		h-30.606v-24.816h30.606V308.315z M411.954,279.363h-30.606v-24.816h30.606V279.363z M411.954,250.411h-30.606v-22.334h30.606
		V250.411z M412.781,220.632v-16.544h22.334v16.544H412.781z M446.696,279.363H416.09v-24.816h30.606V279.363z M446.696,250.411
		H416.09v-22.334h30.606V250.411z"/>
	<g>
		<g>
			<rect x="42.193" y="353.475" style="fill:#263238;" width="399.015" height="10.296"/>
			
				<line style="fill:none;stroke:#263238;stroke-linecap:round;stroke-linejoin:round;stroke-miterlimit:10;" x1="354.541" y1="358.602" x2="354.541" y2="70.199"/>
			
				<line style="fill:none;stroke:#263238;stroke-linecap:round;stroke-linejoin:round;stroke-miterlimit:10;" x1="186.541" y1="358.602" x2="186.541" y2="71.367"/>
			
				<line style="fill:none;stroke:#263238;stroke-linecap:round;stroke-linejoin:round;stroke-miterlimit:10;" x1="29.33" y1="252.042" x2="472.074" y2="252.042"/>
			
				<line style="fill:none;stroke:#263238;stroke-linecap:round;stroke-linejoin:round;stroke-miterlimit:10;" x1="42.838" y1="136.335" x2="455.565" y2="136.335"/>
		</g>
		<g>
			
				<line style="fill:none;stroke:#263238;stroke-width:0.5;stroke-linecap:round;stroke-linejoin:round;stroke-miterlimit:10;" x1="245.945" y1="196.813" x2="241.599" y2="199.491"/>
			
				<line style="fill:none;stroke:#263238;stroke-width:0.5;stroke-linecap:round;stroke-linejoin:round;stroke-miterlimit:10;" x1="319.204" y1="151.665" x2="251.785" y2="193.214"/>
			
				<line style="fill:none;stroke:#263238;stroke-width:0.5;stroke-linecap:round;stroke-linejoin:round;stroke-miterlimit:10;" x1="328.099" y1="154.473" x2="274.085" y2="187.76"/>
			
				<line style="fill:none;stroke:#263238;stroke-width:0.5;stroke-linecap:round;stroke-linejoin:round;stroke-miterlimit:10;" x1="351.689" y1="139.935" x2="335.376" y2="149.988"/>
		</g>
		<g>
			
				<line style="fill:none;stroke:#263238;stroke-width:0.5;stroke-linecap:round;stroke-linejoin:round;stroke-miterlimit:10;" x1="68.932" y1="340.151" x2="64.585" y2="342.83"/>
			
				<line style="fill:none;stroke:#263238;stroke-width:0.5;stroke-linecap:round;stroke-linejoin:round;stroke-miterlimit:10;" x1="142.19" y1="295.004" x2="74.771" y2="336.552"/>
			
				<line style="fill:none;stroke:#263238;stroke-width:0.5;stroke-linecap:round;stroke-linejoin:round;stroke-miterlimit:10;" x1="151.085" y1="297.811" x2="97.071" y2="331.099"/>
			
				<line style="fill:none;stroke:#263238;stroke-width:0.5;stroke-linecap:round;stroke-linejoin:round;stroke-miterlimit:10;" x1="174.675" y1="283.273" x2="158.362" y2="293.327"/>
		</g>
		<g>
			
				<line style="fill:none;stroke:#263238;stroke-width:0.5;stroke-linecap:round;stroke-linejoin:round;stroke-miterlimit:10;" x1="315.888" y1="343.605" x2="311.542" y2="346.284"/>
			
				<line style="fill:none;stroke:#263238;stroke-width:0.5;stroke-linecap:round;stroke-linejoin:round;stroke-miterlimit:10;" x1="389.146" y1="298.458" x2="321.727" y2="340.006"/>
			
				<line style="fill:none;stroke:#263238;stroke-width:0.5;stroke-linecap:round;stroke-linejoin:round;stroke-miterlimit:10;" x1="398.041" y1="301.265" x2="344.027" y2="334.553"/>
			
				<line style="fill:none;stroke:#263238;stroke-width:0.5;stroke-linecap:round;stroke-linejoin:round;stroke-miterlimit:10;" x1="421.631" y1="286.727" x2="405.318" y2="296.781"/>
		</g>
	</g>
</g>
<g id="Character">
	<g>
		<g>
			<path style="fill:#263238;stroke:#263238;stroke-linecap:round;stroke-linejoin:round;stroke-miterlimit:10;" d="
				M274.895,318.025c0,0-4.663,41.964-5.551,53.51c-0.888,11.546-5.107,39.966-5.107,44.629s0.444,10.436,0.444,10.436l-5.329,0.444
				c0,0-2.886-19.539-2.886-27.976c0-8.437-2.886-24.646-2.664-30.419c0.222-5.773,1.776-14.432,1.776-19.539
				c0-5.107-5.107-17.763-4.663-35.303C251.359,296.265,274.895,318.025,274.895,318.025z"/>
			<g>
				<path style="fill:#C6FF00;stroke:#263238;stroke-linecap:round;stroke-linejoin:round;stroke-miterlimit:10;" d="
					M264.682,426.599c0,0,5.329,4.219,7.549,5.551c2.22,1.332,6.217,2.22,6.217,3.108c0,0.888-1.776,1.332-1.776,1.332h-18.651
					c0,0,0-3.33,0.444-5.329c0.444-1.998,0.888-4.219,0.888-4.219L264.682,426.599z"/>
				<path style="fill:#FFFFFF;stroke:#263238;stroke-linecap:round;stroke-linejoin:round;stroke-miterlimit:10;" d="
					M264.237,430.374l0.444-3.775l-5.329,0.444c0,0-0.323,1.616-0.694,3.331H264.237z"/>
			</g>
		</g>
		<g>
			<g>
				<path style="fill:#C6FF00;stroke:#263238;stroke-linecap:round;stroke-linejoin:round;stroke-miterlimit:10;" d="
					M252.692,406.616c0,0-6.439-2.22-7.327-0.666c-0.888,1.554,0.666,16.208,1.332,20.205c0.666,3.997,2.442,8.437,3.553,7.993
					c1.11-0.444,1.776-13.988,2.664-15.987c0.888-1.998,3.775-6.883,3.775-6.883L252.692,406.616z"/>
				<path style="fill:#FFFFFF;stroke:#263238;stroke-linecap:round;stroke-linejoin:round;stroke-miterlimit:10;" d="
					M250.32,405.924c0.241,2.751,1.04,6.909,1.04,6.909l4.529-0.181c0.469-0.812,0.8-1.373,0.8-1.373l-3.997-4.663
					C252.692,406.616,251.633,406.253,250.32,405.924z"/>
			</g>
			<g>
				<path style="fill:#263238;stroke:#263238;stroke-linecap:round;stroke-linejoin:round;stroke-miterlimit:10;" d="
					M248.473,301.372c0,0-6.217,6.883-6.661,14.876c-0.444,7.993,8.881,17.985,12.878,22.203
					c3.997,4.219,26.866,30.419,26.866,30.419s-7.993,5.107-11.768,12.878c-3.775,7.771-17.097,24.868-17.097,24.868l4.219,5.995
					c0,0,26.866-26.866,29.975-29.753c3.108-2.887,10.436-11.768,10.436-13.544c0-1.776-10.658-20.649-13.322-27.976
					c-2.664-7.327-17.541-27.532-17.541-27.532S257.132,303.37,248.473,301.372z"/>
				
					<line style="fill:none;stroke:#FFFFFF;stroke-linecap:round;stroke-linejoin:round;stroke-miterlimit:10;" x1="269.668" y1="352.527" x2="270.739" y2="353.679"/>
				
					<line style="fill:none;stroke:#FFFFFF;stroke-linecap:round;stroke-linejoin:round;stroke-miterlimit:10;" x1="256.257" y1="338.1" x2="267.986" y2="350.718"/>
				<path style="fill:none;stroke:#FFFFFF;stroke-linecap:round;stroke-linejoin:round;stroke-miterlimit:10;" d="M258.242,398.278
					c-0.798,1.027-1.369,1.741-1.546,1.918"/>
				<path style="fill:none;stroke:#FFFFFF;stroke-linecap:round;stroke-linejoin:round;stroke-miterlimit:10;" d="M268.106,385.275
					c0,0-4.425,5.9-7.777,10.29"/>
			</g>
		</g>
		<g>
			<path style="fill:#FFFFFF;stroke:#263238;stroke-linecap:round;stroke-linejoin:round;stroke-miterlimit:10;" d="
				M300.651,328.016c0,0,4.441,4.663,5.551,6.883c1.11,2.22,2.886,6.883,1.554,7.105c-1.332,0.222-2.22-3.997-2.22-3.997
				s0.888,3.997,0.444,5.107c-0.444,1.11-1.776-3.997-1.776-3.997s0.222,4.663-0.444,3.997c-0.666-0.666-1.554-4.885-1.554-4.885
				s-0.444,5.107-1.11,3.997c-0.666-1.11-0.666-4.219-0.666-4.219s-2.22-3.331-3.331-5.773c-1.11-2.442-1.11-3.331-1.11-3.331
				L300.651,328.016z"/>
			<path style="fill:#FFFFFF;stroke:#263238;stroke-linecap:round;stroke-linejoin:round;stroke-miterlimit:10;" d="
				M300.252,332.509c0,0-0.121,1.57,0.604,2.295c0.725,0.725,2.658,1.329,2.658,1.329s2.899,4.349,2.899,2.899
				c0-1.45-1.45-5.436-2.779-6.765"/>
		</g>
		<path style="fill:#C6FF00;stroke:#263238;stroke-linecap:round;stroke-linejoin:round;stroke-miterlimit:10;" d="M287.551,294.933
			c0,0,4.885,9.77,6.661,14.876c1.776,5.107,7.327,17.763,7.327,17.763l-5.329,3.109c0,0-6.661-9.77-9.547-14.876
			c-2.886-5.107-4.219-8.659-4.219-8.659L287.551,294.933z"/>
		<path style="fill:#263238;stroke:#263238;stroke-linecap:round;stroke-linejoin:round;stroke-miterlimit:10;" d="M285.587,309.604
			l-0.888,10.436c0,0-7.105-2.442-8.437-3.331c-1.332-0.888-1.11-6.883,0.222-13.766c1.332-6.883,9.77-26.866,9.77-26.866
			L285.587,309.604z"/>
		<path style="fill:#FFFFFF;stroke:#263238;stroke-linecap:round;stroke-linejoin:round;stroke-miterlimit:10;" d="M280.89,249.86
			c0,0,4.663,9.325,5.107,13.1c0.444,3.775,1.998,10.658,0.222,17.319c-1.776,6.661-5.995,16.43-6.661,24.202
			s-2.22,16.431-2.22,16.431l-2.22,4.219l-3.997-6.439v5.551c0,0-3.109-3.33-7.993-5.995c-4.885-2.664-11.102-11.324-11.102-11.324
			l-2.442-2.442c0,0,10.658-42.409,11.546-48.181c0.888-5.773,6.883-7.771,10.436-8.437
			C275.117,247.196,280.89,249.86,280.89,249.86z"/>
		<path style="fill:#C6FF00;stroke:#263238;stroke-linecap:round;stroke-linejoin:round;stroke-miterlimit:10;" d="M281.591,254.54
			c0,0,2.799,5.846,2.491,11.223c-0.203,3.547,0.395,8.538,0.395,8.538s-0.888,22.203-0.222,25.978
			c0.666,3.775,1.332,9.325,1.332,9.325s1.776-22.87,2.886-27.754c1.11-4.885,2.664-9.548,0.888-14.876
			c-1.776-5.329-3.108-10.658-4.885-12.878c-1.776-2.22-4.663-3.775-4.663-3.775L281.591,254.54z"/>
		<path style="fill:#FFFFFF;stroke:#263238;stroke-linecap:round;stroke-linejoin:round;stroke-miterlimit:10;" d="M277.782,258.519
			l-0.767,4.939c0,0-6.56-6.937-6.338-11.156c0.222-4.219,1.11-7.105,4.441-7.993c3.331-0.888,5.687,6.31,6.353,10.085
			s-1.536,8.297-1.536,8.297L277.782,258.519z"/>
		<g>
			<path id="XMLID_1_" style="fill:#FFFFFF;stroke:#263238;stroke-linecap:round;stroke-linejoin:round;stroke-miterlimit:10;" d="
				M285.997,243.643c0,0-4.663,7.549-6.217,10.88c-1.554,3.331-1.998,3.997-1.998,3.997s-2.664-8.659-2.664-11.324
				c0-2.664,0.222-6.661,0.222-6.661l5.329-7.105L285.997,243.643z"/>
			<g>
				<path style="fill:#263238;stroke:#263238;stroke-linecap:round;stroke-linejoin:round;stroke-miterlimit:10;" d="
					M292.436,215.889c0,0,6.217,5.773,7.105,12.656c0.888,6.883-3.108,12.434-7.771,14.654c-4.663,2.22-7.993,1.998-10.214-1.776
					c-2.22-3.775,0.222-19.761,3.553-23.536C288.439,214.113,292.436,215.889,292.436,215.889z"/>
				<path style="fill:#FFFFFF;stroke:#263238;stroke-linecap:round;stroke-linejoin:round;stroke-miterlimit:10;" d="
					M289.993,218.997c0,0,3.552,1.998,3.552,8.437c0,3.559-2.664,11.546-3.108,13.988c-0.444,2.442-2.886,3.775-4.885,3.33
					c-1.998-0.444-7.105-5.107-8.215-5.995c-1.11-0.888-2.442-4.441-2.22-9.77C275.339,223.66,281.556,215.667,289.993,218.997z"/>
				<path style="fill:#263238;stroke:#263238;stroke-linecap:round;stroke-linejoin:round;stroke-miterlimit:10;" d="
					M291.77,217.665c0,0-7.327,8.659-12.434,16.875c-5.107,8.215-4.885,10.88-9.103,8.881c-4.219-1.998-14.654-12.434-13.322-19.761
					c1.332-7.327,5.329-18.429,19.761-18.429C291.104,205.231,295.766,211.004,291.77,217.665z"/>
			</g>
		</g>
		<path style="fill:#C6FF00;stroke:#263238;stroke-linecap:round;stroke-linejoin:round;stroke-miterlimit:10;" d="M271.565,247.862
			c0,0,1.332,10.213,3.33,15.986c1.998,5.773,5.107,9.992,5.107,9.992s-5.551,13.1-10.658,21.981
			c-5.107,8.881-11.102,19.761-11.102,19.761l-12.212-10.658c0,0,7.327-17.097,7.549-21.537c0.222-4.441,1.776-33.527,3.997-33.749
			C259.797,249.416,271.565,247.862,271.565,247.862z"/>
		<path style="fill:#FFFFFF;stroke:#263238;stroke-linecap:round;stroke-linejoin:round;stroke-miterlimit:10;" d="M241.75,287.25
			L261,252l2.548-2.973l3.589-0.417c0,0-3.137,3.14-4.137,4.89s-18.75,34-18.75,34L241.75,287.25z"/>
		<g>
			<path style="fill:#FFFFFF;stroke:#263238;stroke-linecap:round;stroke-linejoin:round;stroke-miterlimit:10;" d="
				M236.425,333.935c0,0-1.5,6.376-1.688,7.313c-0.188,0.938-3,3.75-3.375,5.438c-0.375,1.688-0.375,3.375-1.125,2.813
				c-0.75-0.563-1.125-2.25-0.938-2.813c0,0-6.188-3-6.376-4.125c-0.188-1.125,9.376-8.813,9.376-8.813L236.425,333.935z"/>
			<path style="fill:#FFFFFF;stroke:#263238;stroke-linecap:round;stroke-linejoin:round;stroke-miterlimit:10;" d="
				M229.299,346.686c0,0,0.563-3.375,1.875-5.25"/>
		</g>
		<polygon style="fill:#FFFFFF;stroke:#263238;stroke-linecap:round;stroke-linejoin:round;stroke-miterlimit:10;" points="
			239.947,286.909 262.31,289.784 257.198,323.648 249.531,324.287 228.765,312.786 		"/>
		<polygon style="fill:#FFFFFF;stroke:#263238;stroke-linecap:round;stroke-linejoin:round;stroke-miterlimit:10;" points="
			256.24,289.465 249.531,324.287 257.198,323.648 262.31,289.784 		"/>
		<path style="fill:#FFFFFF;stroke:#263238;stroke-linecap:round;stroke-linejoin:round;stroke-miterlimit:10;" d="M263.548,249.027
			c0,0,6.109,5.935,2.595,16.158c-3.514,10.223-9.903,24.28-9.903,24.28h3.195l10.707-27.669c0,0,1.001-3.839-0.501-7.761
			s-2.504-5.425-2.504-5.425L263.548,249.027z"/>
		<path style="fill:#C6FF00;stroke:#263238;stroke-linecap:round;stroke-linejoin:round;stroke-miterlimit:10;" d="M265.126,248.972
			c0,0-10.213,0-10.436,1.554c-0.222,1.554-9.325,37.968-10.436,39.966c-1.11,1.998-5.329,8.437-6.217,13.322
			c-0.888,4.885-6.661,30.419-6.661,30.419l6.217,0.888c0,0,12.212-26.866,13.322-31.529c1.11-4.663,2.665-13.544,2.665-13.544
			s14.21-28.865,13.988-31.529c-0.222-2.664-0.888-4.441-0.888-4.441"/>
		<path style="fill:#263238;stroke:#263238;stroke-linecap:round;stroke-linejoin:round;stroke-miterlimit:10;" d="M166.934,432.895
			c0-1.968-1.595-3.563-3.563-3.563c-1.968,0-3.563,1.595-3.563,3.563c0,1.968,1.595,3.563,3.563,3.563
			C165.339,436.458,166.934,434.863,166.934,432.895z"/>
		
			<line style="fill:none;stroke:#263238;stroke-width:2;stroke-linecap:round;stroke-linejoin:round;stroke-miterlimit:10;" x1="220.708" y1="354.398" x2="168.059" y2="431.958"/>
		
			<line style="fill:none;stroke:#263238;stroke-width:4;stroke-linecap:round;stroke-linejoin:round;stroke-miterlimit:10;" x1="229.111" y1="342.185" x2="220.708" y2="354.398"/>
		<g>
			<path style="fill:#263238;stroke:#263238;stroke-linecap:round;stroke-linejoin:round;stroke-miterlimit:10;" d="
				M162.495,428.405l-15.575-10.79c-1.573-1.09-1.965-3.249-0.875-4.822l27.128-39.159c1.09-1.573,3.248-1.965,4.822-0.875
				l15.575,10.79c1.573,1.09,1.965,3.248,0.875,4.822l-27.128,39.159C166.227,429.103,164.068,429.495,162.495,428.405z"/>
			<path style="fill:#263238;stroke:#263238;stroke-linecap:round;stroke-linejoin:round;stroke-miterlimit:10;" d="
				M138.383,408.508l9.495,6.578l24.026-34.682l-10.553-7.311c-1.663-1.152-3.945-0.738-5.097,0.925l-19.122,27.602
				C135.576,403.867,136.136,406.951,138.383,408.508z"/>
			<path style="fill:#C6FF00;stroke:#263238;stroke-linecap:round;stroke-linejoin:round;stroke-miterlimit:10;" d="
				M140.541,410.003l9.495,6.578l24.027-34.682l-10.553-7.311c-1.663-1.152-3.945-0.738-5.097,0.925l-19.122,27.602
				C137.734,405.362,138.294,408.446,140.541,410.003z"/>
			<path style="fill:#263238;" d="M164.585,375.333l-10.853,14.749c-0.394,0.535-0.279,1.288,0.256,1.682l2.639,1.942
				c0.535,0.394,1.289,0.279,1.682-0.256l10.949-14.88L164.585,375.333z"/>
			<path style="fill:#C6FF00;stroke:#263238;stroke-linecap:round;stroke-linejoin:round;stroke-miterlimit:10;" d="
				M164.961,430.114l-15.575-10.79c-1.573-1.09-1.965-3.248-0.875-4.822l27.128-39.159c1.09-1.573,3.249-1.965,4.822-0.875
				l15.575,10.79c1.573,1.09,1.965,3.249,0.875,4.822l-27.128,39.159C168.693,430.812,166.534,431.204,164.961,430.114z"/>
			<polygon style="fill:#FFFFFF;stroke:#263238;stroke-linecap:round;stroke-linejoin:round;stroke-miterlimit:10;" points="
				164.871,426.332 162.246,433.645 163.559,434.395 168.434,428.582 			"/>
			<path style="fill:#263238;" d="M185.961,378.279l-12.114,16.241c-0.422,0.566-0.305,1.367,0.26,1.789l2.506,1.87
				c0.566,0.422,1.367,0.305,1.789-0.26l12.233-16.4L185.961,378.279z"/>
			<path style="fill:#263238;stroke:#263238;stroke-linecap:round;stroke-linejoin:round;stroke-miterlimit:10;" d="
				M165.416,423.201l-10.546-7.566c-1.36-0.976-1.672-2.87-0.696-4.23l8.059-11.234c0.976-1.361,2.87-1.672,4.23-0.696l10.546,7.566
				c1.36,0.976,1.672,2.87,0.696,4.23l-8.059,11.234C168.671,423.865,166.777,424.177,165.416,423.201z"/>
			<path style="fill:#C6FF00;stroke:#263238;stroke-linecap:round;stroke-linejoin:round;stroke-miterlimit:10;" d="M166.6,424.385
				l-10.546-7.566c-1.36-0.976-1.672-2.87-0.696-4.23l8.059-11.234c0.976-1.361,2.87-1.672,4.23-0.696l10.546,7.566
				c1.36,0.976,1.672,2.87,0.696,4.23l-8.059,11.234C169.855,425.049,167.961,425.361,166.6,424.385z"/>
		</g>
	</g>
</g>
<g id="Plants">
	<g>
		<path style="fill:#C6FF00;" d="M59.144,356.394c3.016,4.469,7.213,10.282,9.454,14.946c-0.855-3.076-1.685-5.983-2.448-8.608
			c-1.146-2.251-4.216-7.941-7.76-11.734c-4.502-4.819-6.426-7.914-4.002-8.183c1.679-0.186,6.595,6.361,9.674,12.862
			c-0.672-2.222-1.199-3.918-1.52-4.911c-0.145-0.45-0.289-0.945-0.43-1.468c-1.59-2.213-5.256-7.516-8.691-13.936
			c-4.548-8.501-6.013-16.521-2.98-13.071c2.792,3.177,7.653,18.962,11.512,26.396c-0.325-1.279-0.633-2.696-0.91-4.092
			c-0.546-1.352-1.26-2.723-1.67-3.971c-0.629-1.916-1.185-3.857-1.63-5.824c-0.696-3.073-1.149-6.226-1.109-9.383
			c0.047-3.745,0.822-7.354,2.905-10.486c0.524-0.788,3.717-5.56,4.7-3.105c0.157,0.393,0.119,0.834,0.071,1.255
			c-0.465,4.066-1.94,7.8-2.852,11.758c-1.365,5.922-0.458,15.865,0.027,20.093c0.176,0.667,0.396,1.5,0.652,2.46
			c-0.636-7.368,2.556-16.099,5.514-17.625c3.66-1.888,0.069,5.524-2.753,11.994c-1.826,4.186-1.962,7.36-1.832,9.082
			c0.578,2.126,1.238,4.517,1.926,6.936c0.136,0.332,0.265,0.662,0.387,0.99c-0.288-1.586-0.48-3.298-0.384-4.796
			c0.272-4.228,5.063-12.695,8.241-11.5c3.178,1.195-2.204,5.661-5.086,10.854c-1.974,3.557-1.902,7.311-1.661,9.324
			c0.034,0.192,0.062,0.38,0.087,0.565c0.331,1.102,0.658,2.169,0.977,3.177c0.746,2.362,1.441,4.587,2.106,6.758
			c-0.635-2.618-1.282-6.259-1.065-9.638c0.399-6.202,4.031-12.054,7.054-12.85c3.023-0.796-2.722,9.307-4.644,14.986
			c-1.451,4.287-0.879,8.461-0.511,10.25c0.924,3.076,1.804,6.106,2.698,9.319c-0.318-3.526-0.112-8.099,0.27-12.601
			c0.585-6.897,4.69-11.304,7.509-11.122c2.819,0.181-0.122,4.096-4.199,12.467c-2.923,6.001-2.978,11.531-2.775,14.182
			c0.368,1.354,0.74,2.744,1.123,4.197c0.435,1.651,0.793,3.449,1.089,5.293c0.409-1.642,1.019-4.046,1.729-6.697
			c0.793-2.963,1.459-5.91,1.792-8.956c0.385-3.517,1.31-7.905,4.758-9.735c1.167-0.619,2.275-0.39,2.894,0.782
			c0.38,0.721,0.335,1.585,0.206,2.387c-0.38,2.356-1.29,4.65-2.344,6.886c0.742,1.19,0.943,2.941,0.895,4.221
			c-0.021,0.552-0.051,1.097-0.085,1.639c0.3-0.557,0.59-1.073,0.864-1.53c0.528-0.881,1.157-1.63,1.812-2.232
			c-0.169-1.307-0.28-2.618-0.266-3.935c0.018-1.712,2.005-6.07,3.813-2.839c0.723,1.292,0.583,3.83,0.654,5.517
			c0.497,0.463,0.642,1.414,0.227,2.918c0.286,3.898,0.333,7.892-0.607,11.68c0.207-0.362,0.414-0.726,0.621-1.09
			c0.256-1.252,1.362-6.985,1.563-13.683c0.228-7.587-0.984-13.818,1.084-16.154c2.068-2.336,3.22,5.892,2.352,14.858
			c-0.482,4.981-1.988,9.127-3.231,11.831c2.027-3.643,4.032-7.358,5.928-10.944c0.811-1.916,2.718-7.085,2.242-12.329
			c-0.601-6.613-1.039-12.021,1.471-15.742c2.51-3.722,3.037-1.308,1.805,6.449c-0.845,5.325-1.745,12.438-3.29,17.376
			c1.474-2.832,2.851-5.523,4.085-7.962c0.698-2.427,2.338-8.681,2.336-13.873c-0.002-6.594,0.705-10.17,2.659-8.713
			c1.354,1.01,0.479,9.15-1.707,16.003c1.026-2.082,1.797-3.682,2.241-4.627c0.201-0.428,0.433-0.888,0.688-1.366
			c0.348-2.702,1.287-9.081,3.158-16.117c2.478-9.318,6.88-16.18,6.742-11.588c-0.127,4.228-7.347,19.082-9.6,27.15
			c0.635-1.157,1.377-2.403,2.127-3.612c0.524-1.361,0.937-2.851,1.489-4.042c0.848-1.83,1.767-3.628,2.783-5.37
			c1.588-2.721,3.409-5.335,5.593-7.615c2.59-2.705,5.619-4.814,9.28-5.682c0.921-0.218,6.511-1.527,5.554,0.938
			c-0.153,0.395-0.482,0.691-0.804,0.966c-3.114,2.654-6.742,4.377-10.109,6.648c-5.039,3.397-11.162,11.284-13.693,14.705
			c-0.327,0.608-0.734,1.367-1.202,2.243c4.564-5.82,12.856-10.023,16.059-9.119c3.963,1.118-3.719,4.085-10.198,6.888
			c-4.191,1.813-6.458,4.041-7.537,5.388c-1.028,1.948-2.178,4.146-3.326,6.384c-0.128,0.336-0.258,0.665-0.392,0.987
			c0.872-1.356,1.9-2.738,2.993-3.768c3.085-2.905,12.364-5.824,13.872-2.781c1.507,3.043-5.474,2.634-11.124,4.462
			c-3.87,1.253-6.379,4.046-7.577,5.681c-0.106,0.163-0.214,0.32-0.322,0.472c-0.51,1.031-0.999,2.034-1.454,2.988
			c-1.066,2.236-2.077,4.337-3.073,6.376c1.323-2.347,3.335-5.45,5.799-7.771c4.524-4.261,11.172-6.06,13.925-4.578
			c2.753,1.481-8.341,4.945-13.622,7.784c-3.987,2.143-6.417,5.585-7.369,7.144c-1.423,2.879-2.848,5.694-4.387,8.652
			c2.174-2.794,5.445-5.996,8.797-9.026c5.135-4.642,11.142-5.061,13.079-3.005c1.937,2.056-2.885,2.911-11.577,6.247
			c-6.232,2.392-10.046,6.396-11.707,8.472c-0.655,1.24-1.332,2.511-2.044,3.834c-0.809,1.504-1.775,3.062-2.816,4.612
			c1.419-0.921,3.506-2.262,5.834-3.716c2.602-1.624,5.1-3.324,7.422-5.323c2.681-2.308,6.352-4.884,10.121-3.868
			c1.276,0.344,1.929,1.268,1.582,2.546c-0.215,0.787-0.837,1.387-1.479,1.885c-3.557,2.759-8.339,4.085-12.479,5.714
			c-5.109,2.011-9.568,3.207-11.654,3.718c-0.978,1.411-2.007,2.804-3.031,4.133c0.292,0.009,0.835,0.025,1.858,0.056
			c2.196,0.066,12.123-4.432,17.162-5.88c5.039-1.448,9.753,1.292,4.472,4.13c-5.281,2.839-19.65,2.209-19.65,2.209l-4.144-0.124
			c-0.97,1.249-1.928,2.431-2.827,3.514h19.682v5.458h-3.887l-3.159,19.418H70.372l-3.159-19.418h-3.887v-5.458h13.05
			c0.094-1.851,0.075-4.187-0.192-7.071c-0.32-0.361-1.09-1.096-2.874-2.329c-5.726-3.957-15.437-4.285-18.016-11.9
			c-0.624-1.841,0.082-4.194,2.28-4.093c1.577,0.072,3.252,1.459,4.236,2.595c3.275,3.785,5.742,7.706,10.001,10.573
			c0.193,0.13,2.879,2.269,4.211,3.594c-0.144-1.239-0.332-2.567-0.572-3.988c-1.031-1.82-2.211-3.582-3.517-5.205
			c-3.484-4.327-8.787-6.865-12.559-10.99c-1.155-1.263-2.677-5.805,0.849-4.677c1.571,0.503,3.42,2.876,4.642,3.965
			c3.47,3.093,7.002,6.445,9.286,10.55c-0.096-0.406-0.193-0.813-0.291-1.221c-0.667-1.09-3.771-6.035-8.196-11.068
			c-5.011-5.701-10.15-9.428-10.232-12.547c-0.082-3.119,6.375,2.109,11.859,9.255c3.047,3.97,4.776,8.028,5.713,10.853
			c-1.005-4.047-2.075-8.13-3.136-12.045c-0.715-1.954-2.848-7.034-6.776-10.542c-4.952-4.423-8.963-8.078-9.668-12.51
			C52.718,348.479,54.751,349.884,59.144,356.394z M86.856,406.576c0.74-1.004,1.51-2.103,2.304-3.305
			c0.488-2.034,0.829-4.127,0.981-6.205c0.132-1.792-0.005-3.576-0.246-5.359c-1.293,1.63-2.798,3.268-4.237,4.733
			c0.046,1.519,0.208,3.055,0.573,4.636C86.283,401.302,86.786,404.699,86.856,406.576z M82.61,411.715
			c1.003-1.07,2.105-2.343,3.299-3.886c0.012-0.482-0.048-1.546-0.511-3.664c-0.396-1.813-1.176-3.632-2.043-5.462
			c-1.845,1.754-3.207,2.919-3.207,2.919l-3.114,2.737c0.247,2.724,0.389,5.281,0.471,7.356H82.61z M76.988,403.868
			c0.219-0.193,0.628-0.552,1.396-1.228c0.798-0.701,2.188-3.416,3.716-6.54c-0.644-1.342-1.259-2.693-1.734-4.055
			c-1.647,3.066-3.141,5.446-3.983,6.733C76.631,400.478,76.829,402.198,76.988,403.868z"/>
		<path style="opacity:0.4;fill:#FFFFFF;" d="M59.144,356.394c3.016,4.469,7.213,10.282,9.454,14.946
			c-0.855-3.076-1.685-5.983-2.448-8.608c-1.146-2.251-4.216-7.941-7.76-11.734c-4.502-4.819-6.426-7.914-4.002-8.183
			c1.679-0.186,6.595,6.361,9.674,12.862c-0.672-2.222-1.199-3.918-1.52-4.911c-0.145-0.45-0.289-0.945-0.43-1.468
			c-1.59-2.213-5.256-7.516-8.691-13.936c-4.548-8.501-6.013-16.521-2.98-13.071c2.792,3.177,7.653,18.962,11.512,26.396
			c-0.325-1.279-0.633-2.696-0.91-4.092c-0.546-1.352-1.26-2.723-1.67-3.971c-0.629-1.916-1.185-3.857-1.63-5.824
			c-0.696-3.073-1.149-6.226-1.109-9.383c0.047-3.745,0.822-7.354,2.905-10.486c0.524-0.788,3.717-5.56,4.7-3.105
			c0.157,0.393,0.119,0.834,0.071,1.255c-0.465,4.066-1.94,7.8-2.852,11.758c-1.365,5.922-0.458,15.865,0.027,20.093
			c0.176,0.667,0.396,1.5,0.652,2.46c-0.636-7.368,2.556-16.099,5.514-17.625c3.66-1.888,0.069,5.524-2.753,11.994
			c-1.826,4.186-1.962,7.36-1.832,9.082c0.578,2.126,1.238,4.517,1.926,6.936c0.136,0.332,0.265,0.662,0.387,0.99
			c-0.288-1.586-0.48-3.298-0.384-4.796c0.272-4.228,5.063-12.695,8.241-11.5c3.178,1.195-2.204,5.661-5.086,10.854
			c-1.974,3.557-1.902,7.311-1.661,9.324c0.034,0.192,0.062,0.38,0.087,0.565c0.331,1.102,0.658,2.169,0.977,3.177
			c0.746,2.362,1.441,4.587,2.106,6.758c-0.635-2.618-1.282-6.259-1.065-9.638c0.399-6.202,4.031-12.054,7.054-12.85
			c3.023-0.796-2.722,9.307-4.644,14.986c-1.451,4.287-0.879,8.461-0.511,10.25c0.924,3.076,1.804,6.106,2.698,9.319
			c-0.318-3.526-0.112-8.099,0.27-12.601c0.585-6.897,4.69-11.304,7.509-11.122c2.819,0.181-0.122,4.096-4.199,12.467
			c-2.923,6.001-2.978,11.531-2.775,14.182c0.368,1.354,0.74,2.744,1.123,4.197c0.435,1.651,0.793,3.449,1.089,5.293
			c0.409-1.642,1.019-4.046,1.729-6.697c0.793-2.963,1.459-5.91,1.792-8.956c0.385-3.517,1.31-7.905,4.758-9.735
			c1.167-0.619,2.275-0.39,2.894,0.782c0.38,0.721,0.335,1.585,0.206,2.387c-0.38,2.356-1.29,4.65-2.344,6.886
			c0.742,1.19,0.943,2.941,0.895,4.221c-0.021,0.552-0.051,1.097-0.085,1.639c0.3-0.557,0.59-1.073,0.864-1.53
			c0.528-0.881,1.157-1.63,1.812-2.232c-0.169-1.307-0.28-2.618-0.266-3.935c0.018-1.712,2.005-6.07,3.813-2.839
			c0.723,1.292,0.583,3.83,0.654,5.517c0.497,0.463,0.642,1.414,0.227,2.918c0.286,3.898,0.333,7.892-0.607,11.68
			c0.207-0.362,0.414-0.726,0.621-1.09c0.256-1.252,1.362-6.985,1.563-13.683c0.228-7.587-0.984-13.818,1.084-16.154
			c2.068-2.336,3.22,5.892,2.352,14.858c-0.482,4.981-1.988,9.127-3.231,11.831c2.027-3.643,4.032-7.358,5.928-10.944
			c0.811-1.916,2.718-7.085,2.242-12.329c-0.601-6.613-1.039-12.021,1.471-15.742c2.51-3.722,3.037-1.308,1.805,6.449
			c-0.845,5.325-1.745,12.438-3.29,17.376c1.474-2.832,2.851-5.523,4.085-7.962c0.698-2.427,2.338-8.681,2.336-13.873
			c-0.002-6.594,0.705-10.17,2.659-8.713c1.354,1.01,0.479,9.15-1.707,16.003c1.026-2.082,1.797-3.682,2.241-4.627
			c0.201-0.428,0.433-0.888,0.688-1.366c0.348-2.702,1.287-9.081,3.158-16.117c2.478-9.318,6.88-16.18,6.742-11.588
			c-0.127,4.228-7.347,19.082-9.6,27.15c0.635-1.157,1.377-2.403,2.127-3.612c0.524-1.361,0.937-2.851,1.489-4.042
			c0.848-1.83,1.767-3.628,2.783-5.37c1.588-2.721,3.409-5.335,5.593-7.615c2.59-2.705,5.619-4.814,9.28-5.682
			c0.921-0.218,6.511-1.527,5.554,0.938c-0.153,0.395-0.482,0.691-0.804,0.966c-3.114,2.654-6.742,4.377-10.109,6.648
			c-5.039,3.397-11.162,11.284-13.693,14.705c-0.327,0.608-0.734,1.367-1.202,2.243c4.564-5.82,12.856-10.023,16.059-9.119
			c3.963,1.118-3.719,4.085-10.198,6.888c-4.191,1.813-6.458,4.041-7.537,5.388c-1.028,1.948-2.178,4.146-3.326,6.384
			c-0.128,0.336-0.258,0.665-0.392,0.987c0.872-1.356,1.9-2.738,2.993-3.768c3.085-2.905,12.364-5.824,13.872-2.781
			c1.507,3.043-5.474,2.634-11.124,4.462c-3.87,1.253-6.379,4.046-7.577,5.681c-0.106,0.163-0.214,0.32-0.322,0.472
			c-0.51,1.031-0.999,2.034-1.454,2.988c-1.066,2.236-2.077,4.337-3.073,6.376c1.323-2.347,3.335-5.45,5.799-7.771
			c4.524-4.261,11.172-6.06,13.925-4.578c2.753,1.481-8.341,4.945-13.622,7.784c-3.987,2.143-6.417,5.585-7.369,7.144
			c-1.423,2.879-2.848,5.694-4.387,8.652c2.174-2.794,5.445-5.996,8.797-9.026c5.135-4.642,11.142-5.061,13.079-3.005
			c1.937,2.056-2.885,2.911-11.577,6.247c-6.232,2.392-10.046,6.396-11.707,8.472c-0.655,1.24-1.332,2.511-2.044,3.834
			c-0.809,1.504-1.775,3.062-2.816,4.612c1.419-0.921,3.506-2.262,5.834-3.716c2.602-1.624,5.1-3.324,7.422-5.323
			c2.681-2.308,6.352-4.884,10.121-3.868c1.276,0.344,1.929,1.268,1.582,2.546c-0.215,0.787-0.837,1.387-1.479,1.885
			c-3.557,2.759-8.339,4.085-12.479,5.714c-5.109,2.011-9.568,3.207-11.654,3.718c-0.978,1.411-2.007,2.804-3.031,4.133
			c0.292,0.009,0.835,0.025,1.858,0.056c2.196,0.066,12.123-4.432,17.162-5.88c5.039-1.448,9.753,1.292,4.472,4.13
			c-5.281,2.839-19.65,2.209-19.65,2.209l-4.144-0.124c-0.97,1.249-1.928,2.431-2.827,3.514h19.682v5.458h-3.887l-3.159,19.418
			H70.372l-3.159-19.418h-3.887v-5.458h13.05c0.094-1.851,0.075-4.187-0.192-7.071c-0.32-0.361-1.09-1.096-2.874-2.329
			c-5.726-3.957-15.437-4.285-18.016-11.9c-0.624-1.841,0.082-4.194,2.28-4.093c1.577,0.072,3.252,1.459,4.236,2.595
			c3.275,3.785,5.742,7.706,10.001,10.573c0.193,0.13,2.879,2.269,4.211,3.594c-0.144-1.239-0.332-2.567-0.572-3.988
			c-1.031-1.82-2.211-3.582-3.517-5.205c-3.484-4.327-8.787-6.865-12.559-10.99c-1.155-1.263-2.677-5.805,0.849-4.677
			c1.571,0.503,3.42,2.876,4.642,3.965c3.47,3.093,7.002,6.445,9.286,10.55c-0.096-0.406-0.193-0.813-0.291-1.221
			c-0.667-1.09-3.771-6.035-8.196-11.068c-5.011-5.701-10.15-9.428-10.232-12.547c-0.082-3.119,6.375,2.109,11.859,9.255
			c3.047,3.97,4.776,8.028,5.713,10.853c-1.005-4.047-2.075-8.13-3.136-12.045c-0.715-1.954-2.848-7.034-6.776-10.542
			c-4.952-4.423-8.963-8.078-9.668-12.51C52.718,348.479,54.751,349.884,59.144,356.394z M86.856,406.576
			c0.74-1.004,1.51-2.103,2.304-3.305c0.488-2.034,0.829-4.127,0.981-6.205c0.132-1.792-0.005-3.576-0.246-5.359
			c-1.293,1.63-2.798,3.268-4.237,4.733c0.046,1.519,0.208,3.055,0.573,4.636C86.283,401.302,86.786,404.699,86.856,406.576z
			 M82.61,411.715c1.003-1.07,2.105-2.343,3.299-3.886c0.012-0.482-0.048-1.546-0.511-3.664c-0.396-1.813-1.176-3.632-2.043-5.462
			c-1.845,1.754-3.207,2.919-3.207,2.919l-3.114,2.737c0.247,2.724,0.389,5.281,0.471,7.356H82.61z M76.988,403.868
			c0.219-0.193,0.628-0.552,1.396-1.228c0.798-0.701,2.188-3.416,3.716-6.54c-0.644-1.342-1.259-2.693-1.734-4.055
			c-1.647,3.066-3.141,5.446-3.983,6.733C76.631,400.478,76.829,402.198,76.988,403.868z"/>
	</g>
</g>
<g id="Ground">
	<g>
		
			<line style="fill:none;stroke:#263238;stroke-linecap:round;stroke-linejoin:round;stroke-miterlimit:10;" x1="448.811" y1="436.591" x2="457.816" y2="436.591"/>
		
			<line style="fill:none;stroke:#263238;stroke-linecap:round;stroke-linejoin:round;stroke-miterlimit:10;" x1="201.925" y1="436.591" x2="438.305" y2="436.591"/>
		
			<line style="fill:none;stroke:#263238;stroke-linecap:round;stroke-linejoin:round;stroke-miterlimit:10;" x1="34.583" y1="436.591" x2="195.922" y2="436.591"/>
	</g>
</g>
</svg>
